<?xml version="1.0" encoding="UTF-8"?>
<svg width="60px" height="60px" viewBox="0 0 60 60" version="1.1" xmlns="http://www.w3.org/2000/svg" xmlns:xlink="http://www.w3.org/1999/xlink">
    <!-- Generator: Sketch 49.2 (51160) - http://www.bohemiancoding.com/sketch -->
    <title>Group</title>
    <desc>Created with Sketch.</desc>
    <defs>
        <circle id="path-1" cx="30" cy="30" r="30"></circle>
    </defs>
    <g id="Back-to-top" stroke="none" stroke-width="1" fill="none" fill-rule="evenodd">
        <g id="Ikea-Backtotop-Desktop-01" transform="translate(-1207.000000, -688.000000)">
            <g id="Group" transform="translate(1207.000000, 688.000000)">
                <g id="Oval">
                    <use fill-opacity="0.8" fill="#FFFFFF" fill-rule="evenodd" xlink:href="#path-1"></use>
                    <circle stroke="#CCCCCC" stroke-width="1" cx="30" cy="30" r="29.5"></circle>
                </g>
                <g id="download" transform="translate(17.000000, 17.000000)" fill="#CCCCCC">
                    <g id="Shape">
                        <g transform="translate(13.000000, 14.500000) rotate(-180.000000) translate(-13.000000, -14.500000) ">
                            <path d="M13,25.1842105 C12.798303,25.1842105 12.5966061,25.1094211 12.4429697,24.9606053 L2.98842424,15.8027105 C2.68036364,15.5043158 2.68036364,15.022 2.98842424,14.7236053 C3.29648485,14.4252105 3.79442424,14.4252105 4.10248485,14.7236053 L13,23.3419474 L21.8975152,14.7236053 C22.2055758,14.4252105 22.7035152,14.4252105 23.0115758,14.7236053 C23.3196364,15.022 23.3196364,15.5043158 23.0115758,15.8027105 L13.5570303,24.9606053 C13.4033939,25.1094211 13.201697,25.1842105 13,25.1842105 Z" fill-rule="nonzero"></path>
                            <path d="M13,25.1842105 C12.5650909,25.1842105 12.2121212,24.8430789 12.2121212,24.4210526 L12.2121212,0.899169922 C12.2121212,0.477143606 12.5650909,0.136012027 13,0.136012027 C13.4349091,0.136012027 13.7878788,0.477143606 13.7878788,0.899169922 L13.7878788,24.4210526 C13.7878788,24.8430789 13.4349091,25.1842105 13,25.1842105 Z" fill-rule="nonzero"></path>
                            <path d="M24.8695652,29 L1.13043478,29 C0.832616601,29 0.590909091,28.6588684 0.590909091,28.2368421 C0.590909091,27.8148158 0.832616601,27.4736842 1.13043478,27.4736842 L24.8695652,27.4736842 C25.1679229,27.4736842 25.4090909,27.8148158 25.4090909,28.2368421 C25.4090909,28.6588684 25.1679229,29 24.8695652,29 Z" fill-rule="nonzero"></path>
                        </g>
                    </g>
                </g>
            </g>
        </g>
    </g>
</svg>