<?xml version="1.0" standalone="no"?><!DOCTYPE svg PUBLIC "-//W3C//DTD SVG 1.1//EN" "http://www.w3.org/Graphics/SVG/1.1/DTD/svg11.dtd"><svg t="1600671138792" class="icon" viewBox="0 0 1024 1024" version="1.1" xmlns="http://www.w3.org/2000/svg" p-id="5675" width="16" height="16" xmlns:xlink="http://www.w3.org/1999/xlink"><defs><style type="text/css"></style></defs><path d="M513.1 957.8c-60.3 0-118.9-11.8-174-35.1C285.8 900.2 238 868 197 826.9c-41-41-73.3-88.8-95.8-142.1-23.3-55.1-35.1-113.7-35.1-174s11.8-118.9 35.1-174c22.5-53.2 54.7-101 95.8-142.1 41-41 88.8-73.3 142.1-95.8 55.1-23.3 113.7-35.1 174-35.1s118.9 11.8 174 35.1c53.2 22.5 101 54.7 142.1 95.8 41 41 73.3 88.8 95.8 142.1 23.3 55.1 35.1 113.7 35.1 174s-11.8 118.9-35.1 174c-22.5 53.2-54.7 101-95.8 142.1s-88.8 73.3-142.1 95.8c-55.2 23.3-113.7 35.1-174 35.1z m0-849.6c-222 0-402.6 180.6-402.6 402.6 0 222 180.6 402.6 402.6 402.6 222 0 402.6-180.6 402.6-402.6 0-222-180.6-402.6-402.6-402.6z" fill="#ffffff" p-id="5676"></path><path d="M724.1 453.6H302c-11.9 0-21.6-9.7-21.6-21.6s9.7-21.6 21.6-21.6h422c11.9 0 21.6 9.7 21.6 21.6s-9.6 21.6-21.5 21.6z" fill="#ffffff" p-id="5677"></path><path d="M302 453.6c-4.7 0-9.5-1.6-13.5-4.7-9.3-7.5-10.8-21-3.3-30.3L396.3 280c7.5-9.3 21-10.8 30.3-3.3 9.3 7.5 10.8 21 3.3 30.3l-111 138.5c-4.3 5.3-10.5 8.1-16.9 8.1z" fill="#ffffff" p-id="5678"></path><path d="M724.1 611.2H302c-11.9 0-21.6-9.7-21.6-21.6S290.1 568 302 568h422c11.9 0 21.6 9.7 21.6 21.6s-9.6 21.6-21.5 21.6z" fill="#ffffff" p-id="5679"></path><path d="M613 749.8c-4.7 0-9.5-1.6-13.5-4.7-9.3-7.5-10.8-21-3.3-30.4l111.1-138.5c7.5-9.3 21-10.8 30.4-3.3 9.3 7.5 10.8 21 3.3 30.4L629.9 741.7c-4.3 5.3-10.6 8.1-16.9 8.1z" fill="#ffffff" p-id="5680"></path></svg>