<?xml version="1.0" standalone="no"?><!DOCTYPE svg PUBLIC "-//W3C//DTD SVG 1.1//EN" "http://www.w3.org/Graphics/SVG/1.1/DTD/svg11.dtd"><svg t="1588748563541" class="icon" viewBox="0 0 1024 1024" version="1.1" xmlns="http://www.w3.org/2000/svg" p-id="3880" width="32" height="32" xmlns:xlink="http://www.w3.org/1999/xlink"><defs><style type="text/css"></style></defs><path d="M788.79387 217.747126H666.97318a156.934866 156.934866 0 0 0-311.123372 0H235.402299a39.233716 39.233716 0 0 0-39.233717 37.272031L161.054406 902.375479a39.233716 39.233716 0 0 0 39.233717 41.391571H823.908046A39.233716 39.233716 0 0 0 863.141762 902.375479l-35.310344-647.356322a39.233716 39.233716 0 0 0-39.037548-37.272031z m-119.859004 156.934866a19.616858 19.616858 0 1 1-19.616858-19.616858 19.616858 19.616858 0 0 1 19.616858 19.616858z m-156.934866-255.019157a117.701149 117.701149 0 0 1 115.935632 98.084291H396.064368a117.701149 117.701149 0 0 1 115.935632-98.084291z m-117.701149 255.019157a19.616858 19.616858 0 1 1-19.616859-19.616858 19.616858 19.616858 0 0 1 19.616859 19.616858z m-192.833717 509.057472l32.760153-608.122606a19.616858 19.616858 0 0 1 19.616859-19.616858h101.222988v62.381609a58.850575 58.850575 0 1 0 39.233717 0V256.980843h235.402298v62.381609a58.850575 58.850575 0 1 0 39.233717 0V256.980843h101.222988a19.616858 19.616858 0 0 1 19.616859 19.616858l32.760153 608.122606a19.616858 19.616858 0 0 1-19.616858 20.597701H221.081992a19.616858 19.616858 0 0 1-19.616858-21.578544z" p-id="3881"></path></svg>