<?xml version="1.0" standalone="no"?><!DOCTYPE svg PUBLIC "-//W3C//DTD SVG 1.1//EN" "http://www.w3.org/Graphics/SVG/1.1/DTD/svg11.dtd"><svg t="1600670766059" class="icon" viewBox="0 0 1024 1024" version="1.1" xmlns="http://www.w3.org/2000/svg" p-id="2188" width="16" height="16" xmlns:xlink="http://www.w3.org/1999/xlink"><defs><style type="text/css"></style></defs><path d="M968.746667 417.92l-85.333334-85.333333A42.666667 42.666667 0 0 0 853.333333 320h-170.666666v-85.333333a85.333333 85.333333 0 0 0-85.333334-85.333334H128a85.333333 85.333333 0 0 0-85.333333 85.333334v42.666666a42.666667 42.666667 0 0 0 85.333333 0v-42.666666h469.333333v277.333333a42.666667 42.666667 0 0 0 85.333334 0v-106.666667h152.96L896 465.706667V704h-28.8a128 128 0 0 0-241.066667 0h-206.933333a128 128 0 0 0-241.066667 0H128V448a42.666667 42.666667 0 0 0-85.333333 0v256a85.333333 85.333333 0 0 0 85.333333 85.333333h50.133333a128 128 0 0 0 241.066667 0h206.933333a128 128 0 0 0 241.066667 0H896a85.333333 85.333333 0 0 0 85.333333-85.333333V448a42.666667 42.666667 0 0 0-12.586666-30.08zM298.666667 789.333333a42.666667 42.666667 0 1 1 42.666666-42.666666 42.666667 42.666667 0 0 1-42.666666 42.666666z m448 0a42.666667 42.666667 0 1 1 42.666666-42.666666 42.666667 42.666667 0 0 1-42.666666 42.666666z" fill="#ffffff" p-id="2189"></path><path d="M469.333333 405.333333a42.666667 42.666667 0 0 0 0-85.333333H256a42.666667 42.666667 0 0 0 0 85.333333zM810.666667 533.333333a42.666667 42.666667 0 0 0 0-85.333333h-42.666667a42.666667 42.666667 0 0 0 0 85.333333z" fill="#ffffff" p-id="2190"></path></svg>