<?xml version="1.0" standalone="no"?><!DOCTYPE svg PUBLIC "-//W3C//DTD SVG 1.1//EN" "http://www.w3.org/Graphics/SVG/1.1/DTD/svg11.dtd"><svg t="1600670922946" class="icon" viewBox="0 0 1024 1024" version="1.1" xmlns="http://www.w3.org/2000/svg" p-id="4307" width="16" height="16" xmlns:xlink="http://www.w3.org/1999/xlink"><defs><style type="text/css"></style></defs><path d="M693.12 471.85c15.35-29.16 24.12-62.4 24.12-97.7 0-0.84-0.09-1.67-0.1-2.51 19.23-11.17 32.34-31.76 32.34-55.57l0.01-2.36c0.06-16.43 0.2-47-21.21-66.7-0.27-0.24-0.67-0.49-0.95-0.73C708.5 144.5 619.25 67.13 512.1 67.13c-107.13 0-196.39 77.37-215.23 179.13-0.28 0.25-0.7 0.5-0.96 0.75-21.4 19.69-21.26 50.26-21.2 66.68l0.01 2.39c0 23.84 13.15 44.46 32.43 55.61-0.01 0.82-0.18 1.64-0.18 2.46 0 35.3 8.77 68.54 24.12 97.7-119.41 25.71-209.21 132-209.21 258.98v157.89c0 37.73 30.69 68.41 68.42 68.41h643.62c37.72 0 68.41-30.68 68.41-68.41V730.83c-0.01-126.98-89.81-233.27-209.21-258.98zM299.23 785.09c4.09 13.41 16.41 23.23 31.16 23.23 18.08 0 32.72-14.66 32.72-32.72v-28.97h297.98v28.97c0 18.07 14.65 32.72 32.72 32.72 14.75 0 27.07-9.82 31.16-23.23v106.59H299.23V785.09z m63.89-103.92V532.82c5.05-0.6 10.17-0.91 15.33-1.12 35.94 31.43 82.59 50.58 133.65 50.58s97.72-19.14 133.66-50.58c5.16 0.22 10.28 0.52 15.33 1.13v148.35H363.12z m105.27-300.63H651.47c-3.31 75.7-64.46 136.29-139.38 136.29s-136.06-60.58-139.37-136.29h95.67z m43.71-247.97c70.31 0 129.6 47.55 147.76 112.13-4.98 6.35-7.65 14.57-6.89 23.33 1.42 16.15 14.75 28.51 30.47 29.74 0.65 5.05 0.62 12.08 0.61 15.66l0.98 1.66H468.39c-1.42 0-2.76 0.24-4.13 0.42l-124.09 0.56-0.01-2.66c-0.01-3.56-0.04-10.5 0.6-15.53 16.1-0.75 29.56-13.32 31.01-29.83 0.78-8.89-2.09-17.25-7.35-23.63 18.25-64.44 77.47-111.85 147.68-111.85zM187.32 888.72V730.83c0-77.95 45.03-145.43 110.35-178.25v128.59h-11.8c-28.72 0-52.08 23.73-52.08 52.9v157.61H190.3c-1.65 0-2.98-1.32-2.98-2.96z m649.56 0a2.96 2.96 0 0 1-2.96 2.96h-43.49V734.07c0-29.17-23.36-52.9-52.08-52.9h-11.8V552.58c65.31 32.83 110.34 100.3 110.34 178.25v157.89z" fill="#ffffff" p-id="4308"></path></svg>